 0
SECTION
 2
HEADER
 9
$EXTMIN
 10
0.00000
 20
0.00000
 9
$EXTMAX
 10
10000.00000
 20
10000.00000
 9
$LIMMIN
 10
10000.00000
 20
9990.85000
 9
$LIMMAX
 10
10007.86000
 20
10005.49000
 9
$VIEWCTR
 10
5003.93000
 20
5002.67000
 9
$TEXTSIZE
 40
0.00020
 9
$ACADVER
 1
AC1006
 9
$TEXTSTYLE
 7
MONOTXT
 0
ENDSEC
 0
SECTION
 2
TABLES
 0
TABLE
 2
LAYER
 70
5
 0
LAYER
 2
SYMBOL
 70
0
 62
7
 6
CONTINUOUS
 0
LAYER
 2
ATTRIBUTE
 70
0
 62
7
 6
CONTINUOUS
 0
LAYER
 2
LINE
 70
0
 62
7
 6
CONTINUOUS
 0
LAYER
 2
ANNOTATION
 70
0
 62
7
 6
CONTINUOUS
 0
LAYER
 2
PLANFORM
 70
0
 62
7
 6
CONTINUOUS
 0
ENDTAB
 0
ENDSEC
 0
SECTION
 2
BLOCKS
 0
BLOCK
 2
SYMBOL
 70
66
 10
0.00000
 20
0.00000
 30
0.00000
 0
LINE
 8
SYMBOL
 10
0.00000
 20
0.50000
 30
0.00000
 11
0.00000
 21
-0.50000
 31
0.00000
 0
LINE
 8
SYMBOL
 10
0.50000
 20
0.00000
 30
0.00000
 11
-0.50000
 21
0.00000
 31
0.00000
 0
ENDBLK
 0
BLOCK
 2
DEFAULT
 70
66
 10
0.00000
 20
0.00000
 30
0.00000
 0
ATTDEF
 8
ATTRIBUTE
 10
0.00000
 20
-0.00040
 30
0.00000
 40
0.00020
 1

 3

 2
POINTID
 70
1
 0
ATTDEF
 8
ATTRIBUTE
 10
0.00000
 20
-0.00080
 30
0.00000
 40
0.00020
 1

 3

 2
CODE
 70
1
 0
ENDBLK
 0
ENDSEC
 0
SECTION
 2
ENTITIES
 0
POINT
  5
20
  8
POINT
10
1000.0000       
20
1000.0000       
30
100.0000        
0
TEXT
 8
ANNO_PNTS
 10
1001.000000     
 20
1003.500000     
 30
100.000000      
 40
1.00000 
 1
1 
50
0.00000
0
POINT
  5
20
  8
POINT
10
1000.0000       
20
1000.0000       
30
100.0000        
0
TEXT
 8
ANNO_NRTH
 10
1001.000000     
 20
1001.500000     
 30
100.000000      
 40
1.00000 
 1
1000.000 
 50
0.00000
0
POINT
  5
20
  8
POINT
10
1000.0000       
20
1000.0000       
30
100.0000        
0
TEXT
 8
ANNO_EAST
 10
1001.000000     
 20
999.500000      
 30
100.000000      
 40
1.00000 
 1
1000.000 
 50
0.00000
0
POINT
  5
20
  8
POINT
10
1000.0000       
20
1000.0000       
30
100.0000        
0
TEXT
 8
ANNO_ELEV
 10
1001.000000     
 20
997.500000      
 30
100.000000      
 40
1.00000 
 1
100.000 
 50
0.00000
0
POINT
  5
20
  8
POINT
10
1000.0000       
20
1000.0000       
30
100.0000        
0
TEXT
 8
ANNO_DESC
 10
1001.000000     
 20
995.500000      
 30
100.000000      
 40
1.00000 
 1
H 
 50
0.00000
 0
POINT
  5
20
  8
POINT
10
899.3730        
20
1109.3560       
30
100.6970        
0
TEXT
 8
ANNO_PNTS
 10
900.373000      
 20
1112.856000     
 30
100.697000      
 40
1.00000 
 1
10 
50
0.00000
0
POINT
  5
20
  8
POINT
10
899.3730        
20
1109.3560       
30
100.6970        
0
TEXT
 8
ANNO_NRTH
 10
900.373000      
 20
1110.856000     
 30
100.697000      
 40
1.00000 
 1
1109.356 
 50
0.00000
0
POINT
  5
20
  8
POINT
10
899.3730        
20
1109.3560       
30
100.6970        
0
TEXT
 8
ANNO_EAST
 10
900.373000      
 20
1108.856000     
 30
100.697000      
 40
1.00000 
 1
899.373 
 50
0.00000
0
POINT
  5
20
  8
POINT
10
899.3730        
20
1109.3560       
30
100.6970        
0
TEXT
 8
ANNO_ELEV
 10
900.373000      
 20
1106.856000     
 30
100.697000      
 40
1.00000 
 1
100.697 
 50
0.00000
0
POINT
  5
20
  8
POINT
10
899.3730        
20
1109.3560       
30
100.6970        
0
TEXT
 8
ANNO_DESC
 10
900.373000      
 20
1104.856000     
 30
100.697000      
 40
1.00000 
 1
BW 
 50
0.00000
 0
POINT
  5
20
  8
POINT
10
897.0030        
20
1108.9900       
30
100.4700        
0
TEXT
 8
ANNO_PNTS
 10
898.003000      
 20
1112.490000     
 30
100.470000      
 40
1.00000 
 1
11 
50
0.00000
0
POINT
  5
20
  8
POINT
10
897.0030        
20
1108.9900       
30
100.4700        
0
TEXT
 8
ANNO_NRTH
 10
898.003000      
 20
1110.490000     
 30
100.470000      
 40
1.00000 
 1
1108.990 
 50
0.00000
0
POINT
  5
20
  8
POINT
10
897.0030        
20
1108.9900       
30
100.4700        
0
TEXT
 8
ANNO_EAST
 10
898.003000      
 20
1108.490000     
 30
100.470000      
 40
1.00000 
 1
897.003 
 50
0.00000
0
POINT
  5
20
  8
POINT
10
897.0030        
20
1108.9900       
30
100.4700        
0
TEXT
 8
ANNO_ELEV
 10
898.003000      
 20
1106.490000     
 30
100.470000      
 40
1.00000 
 1
100.470 
 50
0.00000
0
POINT
  5
20
  8
POINT
10
897.0030        
20
1108.9900       
30
100.4700        
0
TEXT
 8
ANNO_DESC
 10
898.003000      
 20
1104.490000     
 30
100.470000      
 40
1.00000 
 1
BW 
 50
0.00000
 0
POINT
  5
20
  8
POINT
10
897.5180        
20
1093.6700       
30
100.5600        
0
TEXT
 8
ANNO_PNTS
 10
898.518000      
 20
1097.170000     
 30
100.560000      
 40
1.00000 
 1
12 
50
0.00000
0
POINT
  5
20
  8
POINT
10
897.5180        
20
1093.6700       
30
100.5600        
0
TEXT
 8
ANNO_NRTH
 10
898.518000      
 20
1095.170000     
 30
100.560000      
 40
1.00000 
 1
1093.670 
 50
0.00000
0
POINT
  5
20
  8
POINT
10
897.5180        
20
1093.6700       
30
100.5600        
0
TEXT
 8
ANNO_EAST
 10
898.518000      
 20
1093.170000     
 30
100.560000      
 40
1.00000 
 1
897.518 
 50
0.00000
0
POINT
  5
20
  8
POINT
10
897.5180        
20
1093.6700       
30
100.5600        
0
TEXT
 8
ANNO_ELEV
 10
898.518000      
 20
1091.170000     
 30
100.560000      
 40
1.00000 
 1
100.560 
 50
0.00000
0
POINT
  5
20
  8
POINT
10
897.5180        
20
1093.6700       
30
100.5600        
0
TEXT
 8
ANNO_DESC
 10
898.518000      
 20
1089.170000     
 30
100.560000      
 40
1.00000 
 1
BW 
 50
0.00000
 0
POINT
  5
20
  8
POINT
10
903.7440        
20
1095.0690       
30
100.2900        
0
TEXT
 8
ANNO_PNTS
 10
904.744000      
 20
1098.569000     
 30
100.290000      
 40
1.00000 
 1
13 
50
0.00000
0
POINT
  5
20
  8
POINT
10
903.7440        
20
1095.0690       
30
100.2900        
0
TEXT
 8
ANNO_NRTH
 10
904.744000      
 20
1096.569000     
 30
100.290000      
 40
1.00000 
 1
1095.069 
 50
0.00000
0
POINT
  5
20
  8
POINT
10
903.7440        
20
1095.0690       
30
100.2900        
0
TEXT
 8
ANNO_EAST
 10
904.744000      
 20
1094.569000     
 30
100.290000      
 40
1.00000 
 1
903.744 
 50
0.00000
0
POINT
  5
20
  8
POINT
10
903.7440        
20
1095.0690       
30
100.2900        
0
TEXT
 8
ANNO_ELEV
 10
904.744000      
 20
1092.569000     
 30
100.290000      
 40
1.00000 
 1
100.290 
 50
0.00000
0
POINT
  5
20
  8
POINT
10
903.7440        
20
1095.0690       
30
100.2900        
0
TEXT
 8
ANNO_DESC
 10
904.744000      
 20
1090.569000     
 30
100.290000      
 40
1.00000 
 1
BW 
 50
0.00000
 0
POINT
  5
20
  8
POINT
10
898.1950        
20
1078.8060       
30
100.1950        
0
TEXT
 8
ANNO_PNTS
 10
899.195000      
 20
1082.306000     
 30
100.195000      
 40
1.00000 
 1
14 
50
0.00000
0
POINT
  5
20
  8
POINT
10
898.1950        
20
1078.8060       
30
100.1950        
0
TEXT
 8
ANNO_NRTH
 10
899.195000      
 20
1080.306000     
 30
100.195000      
 40
1.00000 
 1
1078.806 
 50
0.00000
0
POINT
  5
20
  8
POINT
10
898.1950        
20
1078.8060       
30
100.1950        
0
TEXT
 8
ANNO_EAST
 10
899.195000      
 20
1078.306000     
 30
100.195000      
 40
1.00000 
 1
898.195 
 50
0.00000
0
POINT
  5
20
  8
POINT
10
898.1950        
20
1078.8060       
30
100.1950        
0
TEXT
 8
ANNO_ELEV
 10
899.195000      
 20
1076.306000     
 30
100.195000      
 40
1.00000 
 1
100.195 
 50
0.00000
0
POINT
  5
20
  8
POINT
10
898.1950        
20
1078.8060       
30
100.1950        
0
TEXT
 8
ANNO_DESC
 10
899.195000      
 20
1074.306000     
 30
100.195000      
 40
1.00000 
 1
BW 
 50
0.00000
 0
POINT
  5
20
  8
POINT
10
908.6630        
20
1079.0760       
30
99.7960         
0
TEXT
 8
ANNO_PNTS
 10
909.663000      
 20
1082.576000     
 30
99.796000       
 40
1.00000 
 1
15 
50
0.00000
0
POINT
  5
20
  8
POINT
10
908.6630        
20
1079.0760       
30
99.7960         
0
TEXT
 8
ANNO_NRTH
 10
909.663000      
 20
1080.576000     
 30
99.796000       
 40
1.00000 
 1
1079.076 
 50
0.00000
0
POINT
  5
20
  8
POINT
10
908.6630        
20
1079.0760       
30
99.7960         
0
TEXT
 8
ANNO_EAST
 10
909.663000      
 20
1078.576000     
 30
99.796000       
 40
1.00000 
 1
908.663 
 50
0.00000
0
POINT
  5
20
  8
POINT
10
908.6630        
20
1079.0760       
30
99.7960         
0
TEXT
 8
ANNO_ELEV
 10
909.663000      
 20
1076.576000     
 30
99.796000       
 40
1.00000 
 1
99.796 
 50
0.00000
0
POINT
  5
20
  8
POINT
10
908.6630        
20
1079.0760       
30
99.7960         
0
TEXT
 8
ANNO_DESC
 10
909.663000      
 20
1074.576000     
 30
99.796000       
 40
1.00000 
 1
BW 
 50
0.00000
 0
POINT
  5
20
  8
POINT
10
899.7570        
20
1077.3170       
30
99.9550         
0
TEXT
 8
ANNO_PNTS
 10
900.757000      
 20
1080.817000     
 30
99.955000       
 40
1.00000 
 1
16 
50
0.00000
0
POINT
  5
20
  8
POINT
10
899.7570        
20
1077.3170       
30
99.9550         
0
TEXT
 8
ANNO_NRTH
 10
900.757000      
 20
1078.817000     
 30
99.955000       
 40
1.00000 
 1
1077.317 
 50
0.00000
0
POINT
  5
20
  8
POINT
10
899.7570        
20
1077.3170       
30
99.9550         
0
TEXT
 8
ANNO_EAST
 10
900.757000      
 20
1076.817000     
 30
99.955000       
 40
1.00000 
 1
899.757 
 50
0.00000
0
POINT
  5
20
  8
POINT
10
899.7570        
20
1077.3170       
30
99.9550         
0
TEXT
 8
ANNO_ELEV
 10
900.757000      
 20
1074.817000     
 30
99.955000       
 40
1.00000 
 1
99.955 
 50
0.00000
0
POINT
  5
20
  8
POINT
10
899.7570        
20
1077.3170       
30
99.9550         
0
TEXT
 8
ANNO_DESC
 10
900.757000      
 20
1072.817000     
 30
99.955000       
 40
1.00000 
 1
K 
 50
0.00000
 0
POINT
  5
20
  8
POINT
10
908.8720        
20
1077.5600       
30
99.8990         
0
TEXT
 8
ANNO_PNTS
 10
909.872000      
 20
1081.060000     
 30
99.899000       
 40
1.00000 
 1
17 
50
0.00000
0
POINT
  5
20
  8
POINT
10
908.8720        
20
1077.5600       
30
99.8990         
0
TEXT
 8
ANNO_NRTH
 10
909.872000      
 20
1079.060000     
 30
99.899000       
 40
1.00000 
 1
1077.560 
 50
0.00000
0
POINT
  5
20
  8
POINT
10
908.8720        
20
1077.5600       
30
99.8990         
0
TEXT
 8
ANNO_EAST
 10
909.872000      
 20
1077.060000     
 30
99.899000       
 40
1.00000 
 1
908.872 
 50
0.00000
0
POINT
  5
20
  8
POINT
10
908.8720        
20
1077.5600       
30
99.8990         
0
TEXT
 8
ANNO_ELEV
 10
909.872000      
 20
1075.060000     
 30
99.899000       
 40
1.00000 
 1
99.899 
 50
0.00000
0
POINT
  5
20
  8
POINT
10
908.8720        
20
1077.5600       
30
99.8990         
0
TEXT
 8
ANNO_DESC
 10
909.872000      
 20
1073.060000     
 30
99.899000       
 40
1.00000 
 1
K 
 50
0.00000
 0
POINT
  5
20
  8
POINT
10
898.7530        
20
1063.2290       
30
99.7380         
0
TEXT
 8
ANNO_PNTS
 10
899.753000      
 20
1066.729000     
 30
99.738000       
 40
1.00000 
 1
18 
50
0.00000
0
POINT
  5
20
  8
POINT
10
898.7530        
20
1063.2290       
30
99.7380         
0
TEXT
 8
ANNO_NRTH
 10
899.753000      
 20
1064.729000     
 30
99.738000       
 40
1.00000 
 1
1063.229 
 50
0.00000
0
POINT
  5
20
  8
POINT
10
898.7530        
20
1063.2290       
30
99.7380         
0
TEXT
 8
ANNO_EAST
 10
899.753000      
 20
1062.729000     
 30
99.738000       
 40
1.00000 
 1
898.753 
 50
0.00000
0
POINT
  5
20
  8
POINT
10
898.7530        
20
1063.2290       
30
99.7380         
0
TEXT
 8
ANNO_ELEV
 10
899.753000      
 20
1060.729000     
 30
99.738000       
 40
1.00000 
 1
99.738 
 50
0.00000
0
POINT
  5
20
  8
POINT
10
898.7530        
20
1063.2290       
30
99.7380         
0
TEXT
 8
ANNO_DESC
 10
899.753000      
 20
1058.729000     
 30
99.738000       
 40
1.00000 
 1
BW 
 50
0.00000
 0
POINT
  5
20
  8
POINT
10
898.9520        
20
1048.0920       
30
99.7380         
0
TEXT
 8
ANNO_PNTS
 10
899.952000      
 20
1051.592000     
 30
99.738000       
 40
1.00000 
 1
19 
50
0.00000
0
POINT
  5
20
  8
POINT
10
898.9520        
20
1048.0920       
30
99.7380         
0
TEXT
 8
ANNO_NRTH
 10
899.952000      
 20
1049.592000     
 30
99.738000       
 40
1.00000 
 1
1048.092 
 50
0.00000
0
POINT
  5
20
  8
POINT
10
898.9520        
20
1048.0920       
30
99.7380         
0
TEXT
 8
ANNO_EAST
 10
899.952000      
 20
1047.592000     
 30
99.738000       
 40
1.00000 
 1
898.952 
 50
0.00000
0
POINT
  5
20
  8
POINT
10
898.9520        
20
1048.0920       
30
99.7380         
0
TEXT
 8
ANNO_ELEV
 10
899.952000      
 20
1045.592000     
 30
99.738000       
 40
1.00000 
 1
99.738 
 50
0.00000
0
POINT
  5
20
  8
POINT
10
898.9520        
20
1048.0920       
30
99.7380         
0
TEXT
 8
ANNO_DESC
 10
899.952000      
 20
1043.592000     
 30
99.738000       
 40
1.00000 
 1
BW 
 50
0.00000
 0
POINT
  5
20
  8
POINT
10
916.4010        
20
1053.7640       
30
99.8390         
0
TEXT
 8
ANNO_PNTS
 10
917.401000      
 20
1057.264000     
 30
99.839000       
 40
1.00000 
 1
20 
50
0.00000
0
POINT
  5
20
  8
POINT
10
916.4010        
20
1053.7640       
30
99.8390         
0
TEXT
 8
ANNO_NRTH
 10
917.401000      
 20
1055.264000     
 30
99.839000       
 40
1.00000 
 1
1053.764 
 50
0.00000
0
POINT
  5
20
  8
POINT
10
916.4010        
20
1053.7640       
30
99.8390         
0
TEXT
 8
ANNO_EAST
 10
917.401000      
 20
1053.264000     
 30
99.839000       
 40
1.00000 
 1
916.401 
 50
0.00000
0
POINT
  5
20
  8
POINT
10
916.4010        
20
1053.7640       
30
99.8390         
0
TEXT
 8
ANNO_ELEV
 10
917.401000      
 20
1051.264000     
 30
99.839000       
 40
1.00000 
 1
99.839 
 50
0.00000
0
POINT
  5
20
  8
POINT
10
916.4010        
20
1053.7640       
30
99.8390         
0
TEXT
 8
ANNO_DESC
 10
917.401000      
 20
1049.264000     
 30
99.839000       
 40
1.00000 
 1
BW 
 50
0.00000
 0
POINT
  5
20
  8
POINT
10
917.0700        
20
1018.4760       
30
99.4710         
0
TEXT
 8
ANNO_PNTS
 10
918.070000      
 20
1021.976000     
 30
99.471000       
 40
1.00000 
 1
21 
50
0.00000
0
POINT
  5
20
  8
POINT
10
917.0700        
20
1018.4760       
30
99.4710         
0
TEXT
 8
ANNO_NRTH
 10
918.070000      
 20
1019.976000     
 30
99.471000       
 40
1.00000 
 1
1018.476 
 50
0.00000
0
POINT
  5
20
  8
POINT
10
917.0700        
20
1018.4760       
30
99.4710         
0
TEXT
 8
ANNO_EAST
 10
918.070000      
 20
1017.976000     
 30
99.471000       
 40
1.00000 
 1
917.070 
 50
0.00000
0
POINT
  5
20
  8
POINT
10
917.0700        
20
1018.4760       
30
99.4710         
0
TEXT
 8
ANNO_ELEV
 10
918.070000      
 20
1015.976000     
 30
99.471000       
 40
1.00000 
 1
99.471 
 50
0.00000
0
POINT
  5
20
  8
POINT
10
917.0700        
20
1018.4760       
30
99.4710         
0
TEXT
 8
ANNO_DESC
 10
918.070000      
 20
1013.976000     
 30
99.471000       
 40
1.00000 
 1
BW 
 50
0.00000
 0
POINT
  5
20
  8
POINT
10
927.0660        
20
1018.6110       
30
99.4090         
0
TEXT
 8
ANNO_PNTS
 10
928.066000      
 20
1022.111000     
 30
99.409000       
 40
1.00000 
 1
22 
50
0.00000
0
POINT
  5
20
  8
POINT
10
927.0660        
20
1018.6110       
30
99.4090         
0
TEXT
 8
ANNO_NRTH
 10
928.066000      
 20
1020.111000     
 30
99.409000       
 40
1.00000 
 1
1018.611 
 50
0.00000
0
POINT
  5
20
  8
POINT
10
927.0660        
20
1018.6110       
30
99.4090         
0
TEXT
 8
ANNO_EAST
 10
928.066000      
 20
1018.111000     
 30
99.409000       
 40
1.00000 
 1
927.066 
 50
0.00000
0
POINT
  5
20
  8
POINT
10
927.0660        
20
1018.6110       
30
99.4090         
0
TEXT
 8
ANNO_ELEV
 10
928.066000      
 20
1016.111000     
 30
99.409000       
 40
1.00000 
 1
99.409 
 50
0.00000
0
POINT
  5
20
  8
POINT
10
927.0660        
20
1018.6110       
30
99.4090         
0
TEXT
 8
ANNO_DESC
 10
928.066000      
 20
1014.111000     
 30
99.409000       
 40
1.00000 
 1
BW 
 50
0.00000
 0
POINT
  5
20
  8
POINT
10
943.1290        
20
1009.7210       
30
99.2900         
0
TEXT
 8
ANNO_PNTS
 10
944.129000      
 20
1013.221000     
 30
99.290000       
 40
1.00000 
 1
23 
50
0.00000
0
POINT
  5
20
  8
POINT
10
943.1290        
20
1009.7210       
30
99.2900         
0
TEXT
 8
ANNO_NRTH
 10
944.129000      
 20
1011.221000     
 30
99.290000       
 40
1.00000 
 1
1009.721 
 50
0.00000
0
POINT
  5
20
  8
POINT
10
943.1290        
20
1009.7210       
30
99.2900         
0
TEXT
 8
ANNO_EAST
 10
944.129000      
 20
1009.221000     
 30
99.290000       
 40
1.00000 
 1
943.129 
 50
0.00000
0
POINT
  5
20
  8
POINT
10
943.1290        
20
1009.7210       
30
99.2900         
0
TEXT
 8
ANNO_ELEV
 10
944.129000      
 20
1007.221000     
 30
99.290000       
 40
1.00000 
 1
99.290 
 50
0.00000
0
POINT
  5
20
  8
POINT
10
943.1290        
20
1009.7210       
30
99.2900         
0
TEXT
 8
ANNO_DESC
 10
944.129000      
 20
1005.221000     
 30
99.290000       
 40
1.00000 
 1
BW 
 50
0.00000
 0
POINT
  5
20
  8
POINT
10
956.5030        
20
1009.7980       
30
99.1530         
0
TEXT
 8
ANNO_PNTS
 10
957.503000      
 20
1013.298000     
 30
99.153000       
 40
1.00000 
 1
24 
50
0.00000
0
POINT
  5
20
  8
POINT
10
956.5030        
20
1009.7980       
30
99.1530         
0
TEXT
 8
ANNO_NRTH
 10
957.503000      
 20
1011.298000     
 30
99.153000       
 40
1.00000 
 1
1009.798 
 50
0.00000
0
POINT
  5
20
  8
POINT
10
956.5030        
20
1009.7980       
30
99.1530         
0
TEXT
 8
ANNO_EAST
 10
957.503000      
 20
1009.298000     
 30
99.153000       
 40
1.00000 
 1
956.503 
 50
0.00000
0
POINT
  5
20
  8
POINT
10
956.5030        
20
1009.7980       
30
99.1530         
0
TEXT
 8
ANNO_ELEV
 10
957.503000      
 20
1007.298000     
 30
99.153000       
 40
1.00000 
 1
99.153 
 50
0.00000
0
POINT
  5
20
  8
POINT
10
956.5030        
20
1009.7980       
30
99.1530         
0
TEXT
 8
ANNO_DESC
 10
957.503000      
 20
1005.298000     
 30
99.153000       
 40
1.00000 
 1
BW 
 50
0.00000
 0
POINT
  5
20
  8
POINT
10
899.2130        
20
1016.1110       
30
99.5130         
0
TEXT
 8
ANNO_PNTS
 10
900.213000      
 20
1019.611000     
 30
99.513000       
 40
1.00000 
 1
25 
50
0.00000
0
POINT
  5
20
  8
POINT
10
899.2130        
20
1016.1110       
30
99.5130         
0
TEXT
 8
ANNO_NRTH
 10
900.213000      
 20
1017.611000     
 30
99.513000       
 40
1.00000 
 1
1016.111 
 50
0.00000
0
POINT
  5
20
  8
POINT
10
899.2130        
20
1016.1110       
30
99.5130         
0
TEXT
 8
ANNO_EAST
 10
900.213000      
 20
1015.611000     
 30
99.513000       
 40
1.00000 
 1
899.213 
 50
0.00000
0
POINT
  5
20
  8
POINT
10
899.2130        
20
1016.1110       
30
99.5130         
0
TEXT
 8
ANNO_ELEV
 10
900.213000      
 20
1013.611000     
 30
99.513000       
 40
1.00000 
 1
99.513 
 50
0.00000
0
POINT
  5
20
  8
POINT
10
899.2130        
20
1016.1110       
30
99.5130         
0
TEXT
 8
ANNO_DESC
 10
900.213000      
 20
1011.611000     
 30
99.513000       
 40
1.00000 
 1
BW 
 50
0.00000
 0
POINT
  5
20
  8
POINT
10
899.7110        
20
982.4470        
30
99.4850         
0
TEXT
 8
ANNO_PNTS
 10
900.711000      
 20
985.947000      
 30
99.485000       
 40
1.00000 
 1
26 
50
0.00000
0
POINT
  5
20
  8
POINT
10
899.7110        
20
982.4470        
30
99.4850         
0
TEXT
 8
ANNO_NRTH
 10
900.711000      
 20
983.947000      
 30
99.485000       
 40
1.00000 
 1
982.447 
 50
0.00000
0
POINT
  5
20
  8
POINT
10
899.7110        
20
982.4470        
30
99.4850         
0
TEXT
 8
ANNO_EAST
 10
900.711000      
 20
981.947000      
 30
99.485000       
 40
1.00000 
 1
899.711 
 50
0.00000
0
POINT
  5
20
  8
POINT
10
899.7110        
20
982.4470        
30
99.4850         
0
TEXT
 8
ANNO_ELEV
 10
900.711000      
 20
979.947000      
 30
99.485000       
 40
1.00000 
 1
99.485 
 50
0.00000
0
POINT
  5
20
  8
POINT
10
899.7110        
20
982.4470        
30
99.4850         
0
TEXT
 8
ANNO_DESC
 10
900.711000      
 20
977.947000      
 30
99.485000       
 40
1.00000 
 1
BW 
 50
0.00000
 0
POINT
  5
20
  8
POINT
10
900.2590        
20
946.6720        
30
99.3020         
0
TEXT
 8
ANNO_PNTS
 10
901.259000      
 20
950.172000      
 30
99.302000       
 40
1.00000 
 1
27 
50
0.00000
0
POINT
  5
20
  8
POINT
10
900.2590        
20
946.6720        
30
99.3020         
0
TEXT
 8
ANNO_NRTH
 10
901.259000      
 20
948.172000      
 30
99.302000       
 40
1.00000 
 1
946.672 
 50
0.00000
0
POINT
  5
20
  8
POINT
10
900.2590        
20
946.6720        
30
99.3020         
0
TEXT
 8
ANNO_EAST
 10
901.259000      
 20
946.172000      
 30
99.302000       
 40
1.00000 
 1
900.259 
 50
0.00000
0
POINT
  5
20
  8
POINT
10
900.2590        
20
946.6720        
30
99.3020         
0
TEXT
 8
ANNO_ELEV
 10
901.259000      
 20
944.172000      
 30
99.302000       
 40
1.00000 
 1
99.302 
 50
0.00000
0
POINT
  5
20
  8
POINT
10
900.2590        
20
946.6720        
30
99.3020         
0
TEXT
 8
ANNO_DESC
 10
901.259000      
 20
942.172000      
 30
99.302000       
 40
1.00000 
 1
BW 
 50
0.00000
 0
POINT
  5
20
  8
POINT
10
900.4200        
20
924.2090        
30
99.7370         
0
TEXT
 8
ANNO_PNTS
 10
901.420000      
 20
927.709000      
 30
99.737000       
 40
1.00000 
 1
28 
50
0.00000
0
POINT
  5
20
  8
POINT
10
900.4200        
20
924.2090        
30
99.7370         
0
TEXT
 8
ANNO_NRTH
 10
901.420000      
 20
925.709000      
 30
99.737000       
 40
1.00000 
 1
924.209 
 50
0.00000
0
POINT
  5
20
  8
POINT
10
900.4200        
20
924.2090        
30
99.7370         
0
TEXT
 8
ANNO_EAST
 10
901.420000      
 20
923.709000      
 30
99.737000       
 40
1.00000 
 1
900.420 
 50
0.00000
0
POINT
  5
20
  8
POINT
10
900.4200        
20
924.2090        
30
99.7370         
0
TEXT
 8
ANNO_ELEV
 10
901.420000      
 20
921.709000      
 30
99.737000       
 40
1.00000 
 1
99.737 
 50
0.00000
0
POINT
  5
20
  8
POINT
10
900.4200        
20
924.2090        
30
99.7370         
0
TEXT
 8
ANNO_DESC
 10
901.420000      
 20
919.709000      
 30
99.737000       
 40
1.00000 
 1
BW 
 50
0.00000
 0
POINT
  5
20
  8
POINT
10
925.2140        
20
920.9700        
30
99.2780         
0
TEXT
 8
ANNO_PNTS
 10
926.214000      
 20
924.470000      
 30
99.278000       
 40
1.00000 
 1
29 
50
0.00000
0
POINT
  5
20
  8
POINT
10
925.2140        
20
920.9700        
30
99.2780         
0
TEXT
 8
ANNO_NRTH
 10
926.214000      
 20
922.470000      
 30
99.278000       
 40
1.00000 
 1
920.970 
 50
0.00000
0
POINT
  5
20
  8
POINT
10
925.2140        
20
920.9700        
30
99.2780         
0
TEXT
 8
ANNO_EAST
 10
926.214000      
 20
920.470000      
 30
99.278000       
 40
1.00000 
 1
925.214 
 50
0.00000
0
POINT
  5
20
  8
POINT
10
925.2140        
20
920.9700        
30
99.2780         
0
TEXT
 8
ANNO_ELEV
 10
926.214000      
 20
918.470000      
 30
99.278000       
 40
1.00000 
 1
99.278 
 50
0.00000
0
POINT
  5
20
  8
POINT
10
925.2140        
20
920.9700        
30
99.2780         
0
TEXT
 8
ANNO_DESC
 10
926.214000      
 20
916.470000      
 30
99.278000       
 40
1.00000 
 1
BW 
 50
0.00000
 0
POINT
  5
20
  8
POINT
10
999.9990        
20
1027.0890       
30
98.6180         
0
TEXT
 8
ANNO_PNTS
 10
1000.999000     
 20
1030.589000     
 30
98.618000       
 40
1.00000 
 1
3 
50
0.00000
0
POINT
  5
20
  8
POINT
10
999.9990        
20
1027.0890       
30
98.6180         
0
TEXT
 8
ANNO_NRTH
 10
1000.999000     
 20
1028.589000     
 30
98.618000       
 40
1.00000 
 1
1027.089 
 50
0.00000
0
POINT
  5
20
  8
POINT
10
999.9990        
20
1027.0890       
30
98.6180         
0
TEXT
 8
ANNO_EAST
 10
1000.999000     
 20
1026.589000     
 30
98.618000       
 40
1.00000 
 1
999.999 
 50
0.00000
0
POINT
  5
20
  8
POINT
10
999.9990        
20
1027.0890       
30
98.6180         
0
TEXT
 8
ANNO_ELEV
 10
1000.999000     
 20
1024.589000     
 30
98.618000       
 40
1.00000 
 1
98.618 
 50
0.00000
0
POINT
  5
20
  8
POINT
10
999.9990        
20
1027.0890       
30
98.6180         
0
TEXT
 8
ANNO_DESC
 10
1000.999000     
 20
1022.589000     
 30
98.618000       
 40
1.00000 
 1
NORTH 
 50
0.00000
 0
POINT
  5
20
  8
POINT
10
956.2080        
20
920.0130        
30
98.9660         
0
TEXT
 8
ANNO_PNTS
 10
957.208000      
 20
923.513000      
 30
98.966000       
 40
1.00000 
 1
30 
50
0.00000
0
POINT
  5
20
  8
POINT
10
956.2080        
20
920.0130        
30
98.9660         
0
TEXT
 8
ANNO_NRTH
 10
957.208000      
 20
921.513000      
 30
98.966000       
 40
1.00000 
 1
920.013 
 50
0.00000
0
POINT
  5
20
  8
POINT
10
956.2080        
20
920.0130        
30
98.9660         
0
TEXT
 8
ANNO_EAST
 10
957.208000      
 20
919.513000      
 30
98.966000       
 40
1.00000 
 1
956.208 
 50
0.00000
0
POINT
  5
20
  8
POINT
10
956.2080        
20
920.0130        
30
98.9660         
0
TEXT
 8
ANNO_ELEV
 10
957.208000      
 20
917.513000      
 30
98.966000       
 40
1.00000 
 1
98.966 
 50
0.00000
0
POINT
  5
20
  8
POINT
10
956.2080        
20
920.0130        
30
98.9660         
0
TEXT
 8
ANNO_DESC
 10
957.208000      
 20
915.513000      
 30
98.966000       
 40
1.00000 
 1
BW 
 50
0.00000
 0
POINT
  5
20
  8
POINT
10
987.0870        
20
918.8930        
30
98.5970         
0
TEXT
 8
ANNO_PNTS
 10
988.087000      
 20
922.393000      
 30
98.597000       
 40
1.00000 
 1
31 
50
0.00000
0
POINT
  5
20
  8
POINT
10
987.0870        
20
918.8930        
30
98.5970         
0
TEXT
 8
ANNO_NRTH
 10
988.087000      
 20
920.393000      
 30
98.597000       
 40
1.00000 
 1
918.893 
 50
0.00000
0
POINT
  5
20
  8
POINT
10
987.0870        
20
918.8930        
30
98.5970         
0
TEXT
 8
ANNO_EAST
 10
988.087000      
 20
918.393000      
 30
98.597000       
 40
1.00000 
 1
987.087 
 50
0.00000
0
POINT
  5
20
  8
POINT
10
987.0870        
20
918.8930        
30
98.5970         
0
TEXT
 8
ANNO_ELEV
 10
988.087000      
 20
916.393000      
 30
98.597000       
 40
1.00000 
 1
98.597 
 50
0.00000
0
POINT
  5
20
  8
POINT
10
987.0870        
20
918.8930        
30
98.5970         
0
TEXT
 8
ANNO_DESC
 10
988.087000      
 20
914.393000      
 30
98.597000       
 40
1.00000 
 1
BW 
 50
0.00000
 0
POINT
  5
20
  8
POINT
10
1004.9000       
20
918.2250        
30
98.5230         
0
TEXT
 8
ANNO_PNTS
 10
1005.900000     
 20
921.725000      
 30
98.523000       
 40
1.00000 
 1
32 
50
0.00000
0
POINT
  5
20
  8
POINT
10
1004.9000       
20
918.2250        
30
98.5230         
0
TEXT
 8
ANNO_NRTH
 10
1005.900000     
 20
919.725000      
 30
98.523000       
 40
1.00000 
 1
918.225 
 50
0.00000
0
POINT
  5
20
  8
POINT
10
1004.9000       
20
918.2250        
30
98.5230         
0
TEXT
 8
ANNO_EAST
 10
1005.900000     
 20
917.725000      
 30
98.523000       
 40
1.00000 
 1
1004.900 
 50
0.00000
0
POINT
  5
20
  8
POINT
10
1004.9000       
20
918.2250        
30
98.5230         
0
TEXT
 8
ANNO_ELEV
 10
1005.900000     
 20
915.725000      
 30
98.523000       
 40
1.00000 
 1
98.523 
 50
0.00000
0
POINT
  5
20
  8
POINT
10
1004.9000       
20
918.2250        
30
98.5230         
0
TEXT
 8
ANNO_DESC
 10
1005.900000     
 20
913.725000      
 30
98.523000       
 40
1.00000 
 1
BW 
 50
0.00000
 0
POINT
  5
20
  8
POINT
10
1005.2190       
20
954.9100        
30
99.4550         
0
TEXT
 8
ANNO_PNTS
 10
1006.219000     
 20
958.410000      
 30
99.455000       
 40
1.00000 
 1
33 
50
0.00000
0
POINT
  5
20
  8
POINT
10
1005.2190       
20
954.9100        
30
99.4550         
0
TEXT
 8
ANNO_NRTH
 10
1006.219000     
 20
956.410000      
 30
99.455000       
 40
1.00000 
 1
954.910 
 50
0.00000
0
POINT
  5
20
  8
POINT
10
1005.2190       
20
954.9100        
30
99.4550         
0
TEXT
 8
ANNO_EAST
 10
1006.219000     
 20
954.410000      
 30
99.455000       
 40
1.00000 
 1
1005.219 
 50
0.00000
0
POINT
  5
20
  8
POINT
10
1005.2190       
20
954.9100        
30
99.4550         
0
TEXT
 8
ANNO_ELEV
 10
1006.219000     
 20
952.410000      
 30
99.455000       
 40
1.00000 
 1
99.455 
 50
0.00000
0
POINT
  5
20
  8
POINT
10
1005.2190       
20
954.9100        
30
99.4550         
0
TEXT
 8
ANNO_DESC
 10
1006.219000     
 20
950.410000      
 30
99.455000       
 40
1.00000 
 1
K 
 50
0.00000
 0
POINT
  5
20
  8
POINT
10
1005.8760       
20
949.0750        
30
99.1710         
0
TEXT
 8
ANNO_PNTS
 10
1006.876000     
 20
952.575000      
 30
99.171000       
 40
1.00000 
 1
34 
50
0.00000
0
POINT
  5
20
  8
POINT
10
1005.8760       
20
949.0750        
30
99.1710         
0
TEXT
 8
ANNO_NRTH
 10
1006.876000     
 20
950.575000      
 30
99.171000       
 40
1.00000 
 1
949.075 
 50
0.00000
0
POINT
  5
20
  8
POINT
10
1005.8760       
20
949.0750        
30
99.1710         
0
TEXT
 8
ANNO_EAST
 10
1006.876000     
 20
948.575000      
 30
99.171000       
 40
1.00000 
 1
1005.876 
 50
0.00000
0
POINT
  5
20
  8
POINT
10
1005.8760       
20
949.0750        
30
99.1710         
0
TEXT
 8
ANNO_ELEV
 10
1006.876000     
 20
946.575000      
 30
99.171000       
 40
1.00000 
 1
99.171 
 50
0.00000
0
POINT
  5
20
  8
POINT
10
1005.8760       
20
949.0750        
30
99.1710         
0
TEXT
 8
ANNO_DESC
 10
1006.876000     
 20
944.575000      
 30
99.171000       
 40
1.00000 
 1
K 
 50
0.00000
 0
POINT
  5
20
  8
POINT
10
995.3800        
20
949.4350        
30
98.8210         
0
TEXT
 8
ANNO_PNTS
 10
996.380000      
 20
952.935000      
 30
98.821000       
 40
1.00000 
 1
35 
50
0.00000
0
POINT
  5
20
  8
POINT
10
995.3800        
20
949.4350        
30
98.8210         
0
TEXT
 8
ANNO_NRTH
 10
996.380000      
 20
950.935000      
 30
98.821000       
 40
1.00000 
 1
949.435 
 50
0.00000
0
POINT
  5
20
  8
POINT
10
995.3800        
20
949.4350        
30
98.8210         
0
TEXT
 8
ANNO_EAST
 10
996.380000      
 20
948.935000      
 30
98.821000       
 40
1.00000 
 1
995.380 
 50
0.00000
0
POINT
  5
20
  8
POINT
10
995.3800        
20
949.4350        
30
98.8210         
0
TEXT
 8
ANNO_ELEV
 10
996.380000      
 20
946.935000      
 30
98.821000       
 40
1.00000 
 1
98.821 
 50
0.00000
0
POINT
  5
20
  8
POINT
10
995.3800        
20
949.4350        
30
98.8210         
0
TEXT
 8
ANNO_DESC
 10
996.380000      
 20
944.935000      
 30
98.821000       
 40
1.00000 
 1
K 
 50
0.00000
 0
POINT
  5
20
  8
POINT
10
978.1640        
20
950.0270        
30
98.8760         
0
TEXT
 8
ANNO_PNTS
 10
979.164000      
 20
953.527000      
 30
98.876000       
 40
1.00000 
 1
36 
50
0.00000
0
POINT
  5
20
  8
POINT
10
978.1640        
20
950.0270        
30
98.8760         
0
TEXT
 8
ANNO_NRTH
 10
979.164000      
 20
951.527000      
 30
98.876000       
 40
1.00000 
 1
950.027 
 50
0.00000
0
POINT
  5
20
  8
POINT
10
978.1640        
20
950.0270        
30
98.8760         
0
TEXT
 8
ANNO_EAST
 10
979.164000      
 20
949.527000      
 30
98.876000       
 40
1.00000 
 1
978.164 
 50
0.00000
0
POINT
  5
20
  8
POINT
10
978.1640        
20
950.0270        
30
98.8760         
0
TEXT
 8
ANNO_ELEV
 10
979.164000      
 20
947.527000      
 30
98.876000       
 40
1.00000 
 1
98.876 
 50
0.00000
0
POINT
  5
20
  8
POINT
10
978.1640        
20
950.0270        
30
98.8760         
0
TEXT
 8
ANNO_DESC
 10
979.164000      
 20
945.527000      
 30
98.876000       
 40
1.00000 
 1
K 
 50
0.00000
 0
POINT
  5
20
  8
POINT
10
970.8760        
20
950.3940        
30
98.7030         
0
TEXT
 8
ANNO_PNTS
 10
971.876000      
 20
953.894000      
 30
98.703000       
 40
1.00000 
 1
37 
50
0.00000
0
POINT
  5
20
  8
POINT
10
970.8760        
20
950.3940        
30
98.7030         
0
TEXT
 8
ANNO_NRTH
 10
971.876000      
 20
951.894000      
 30
98.703000       
 40
1.00000 
 1
950.394 
 50
0.00000
0
POINT
  5
20
  8
POINT
10
970.8760        
20
950.3940        
30
98.7030         
0
TEXT
 8
ANNO_EAST
 10
971.876000      
 20
949.894000      
 30
98.703000       
 40
1.00000 
 1
970.876 
 50
0.00000
0
POINT
  5
20
  8
POINT
10
970.8760        
20
950.3940        
30
98.7030         
0
TEXT
 8
ANNO_ELEV
 10
971.876000      
 20
947.894000      
 30
98.703000       
 40
1.00000 
 1
98.703 
 50
0.00000
0
POINT
  5
20
  8
POINT
10
970.8760        
20
950.3940        
30
98.7030         
0
TEXT
 8
ANNO_DESC
 10
971.876000      
 20
945.894000      
 30
98.703000       
 40
1.00000 
 1
BW 
 50
0.00000
 0
POINT
  5
20
  8
POINT
10
943.5360        
20
951.4880        
30
99.5040         
0
TEXT
 8
ANNO_PNTS
 10
944.536000      
 20
954.988000      
 30
99.504000       
 40
1.00000 
 1
38 
50
0.00000
0
POINT
  5
20
  8
POINT
10
943.5360        
20
951.4880        
30
99.5040         
0
TEXT
 8
ANNO_NRTH
 10
944.536000      
 20
952.988000      
 30
99.504000       
 40
1.00000 
 1
951.488 
 50
0.00000
0
POINT
  5
20
  8
POINT
10
943.5360        
20
951.4880        
30
99.5040         
0
TEXT
 8
ANNO_EAST
 10
944.536000      
 20
950.988000      
 30
99.504000       
 40
1.00000 
 1
943.536 
 50
0.00000
0
POINT
  5
20
  8
POINT
10
943.5360        
20
951.4880        
30
99.5040         
0
TEXT
 8
ANNO_ELEV
 10
944.536000      
 20
948.988000      
 30
99.504000       
 40
1.00000 
 1
99.504 
 50
0.00000
0
POINT
  5
20
  8
POINT
10
943.5360        
20
951.4880        
30
99.5040         
0
TEXT
 8
ANNO_DESC
 10
944.536000      
 20
946.988000      
 30
99.504000       
 40
1.00000 
 1
BW 
 50
0.00000
 0
POINT
  5
20
  8
POINT
10
966.0460        
20
1008.7390       
30
99.5760         
0
TEXT
 8
ANNO_PNTS
 10
967.046000      
 20
1012.239000     
 30
99.576000       
 40
1.00000 
 1
39 
50
0.00000
0
POINT
  5
20
  8
POINT
10
966.0460        
20
1008.7390       
30
99.5760         
0
TEXT
 8
ANNO_NRTH
 10
967.046000      
 20
1010.239000     
 30
99.576000       
 40
1.00000 
 1
1008.739 
 50
0.00000
0
POINT
  5
20
  8
POINT
10
966.0460        
20
1008.7390       
30
99.5760         
0
TEXT
 8
ANNO_EAST
 10
967.046000      
 20
1008.239000     
 30
99.576000       
 40
1.00000 
 1
966.046 
 50
0.00000
0
POINT
  5
20
  8
POINT
10
966.0460        
20
1008.7390       
30
99.5760         
0
TEXT
 8
ANNO_ELEV
 10
967.046000      
 20
1006.239000     
 30
99.576000       
 40
1.00000 
 1
99.576 
 50
0.00000
0
POINT
  5
20
  8
POINT
10
966.0460        
20
1008.7390       
30
99.5760         
0
TEXT
 8
ANNO_DESC
 10
967.046000      
 20
1004.239000     
 30
99.576000       
 40
1.00000 
 1
P 
 50
0.00000
 0
POINT
  5
20
  8
POINT
10
986.0560        
20
1013.8150       
30
99.6850         
0
TEXT
 8
ANNO_PNTS
 10
987.056000      
 20
1017.315000     
 30
99.685000       
 40
1.00000 
 1
4 
50
0.00000
0
POINT
  5
20
  8
POINT
10
986.0560        
20
1013.8150       
30
99.6850         
0
TEXT
 8
ANNO_NRTH
 10
987.056000      
 20
1015.315000     
 30
99.685000       
 40
1.00000 
 1
1013.815 
 50
0.00000
0
POINT
  5
20
  8
POINT
10
986.0560        
20
1013.8150       
30
99.6850         
0
TEXT
 8
ANNO_EAST
 10
987.056000      
 20
1013.315000     
 30
99.685000       
 40
1.00000 
 1
986.056 
 50
0.00000
0
POINT
  5
20
  8
POINT
10
986.0560        
20
1013.8150       
30
99.6850         
0
TEXT
 8
ANNO_ELEV
 10
987.056000      
 20
1011.315000     
 30
99.685000       
 40
1.00000 
 1
99.685 
 50
0.00000
0
POINT
  5
20
  8
POINT
10
986.0560        
20
1013.8150       
30
99.6850         
0
TEXT
 8
ANNO_DESC
 10
987.056000      
 20
1009.315000     
 30
99.685000       
 40
1.00000 
 1
P 
 50
0.00000
 0
POINT
  5
20
  8
POINT
10
997.0830        
20
988.3890        
30
99.4150         
0
TEXT
 8
ANNO_PNTS
 10
998.083000      
 20
991.889000      
 30
99.415000       
 40
1.00000 
 1
40 
50
0.00000
0
POINT
  5
20
  8
POINT
10
997.0830        
20
988.3890        
30
99.4150         
0
TEXT
 8
ANNO_NRTH
 10
998.083000      
 20
989.889000      
 30
99.415000       
 40
1.00000 
 1
988.389 
 50
0.00000
0
POINT
  5
20
  8
POINT
10
997.0830        
20
988.3890        
30
99.4150         
0
TEXT
 8
ANNO_EAST
 10
998.083000      
 20
987.889000      
 30
99.415000       
 40
1.00000 
 1
997.083 
 50
0.00000
0
POINT
  5
20
  8
POINT
10
997.0830        
20
988.3890        
30
99.4150         
0
TEXT
 8
ANNO_ELEV
 10
998.083000      
 20
985.889000      
 30
99.415000       
 40
1.00000 
 1
99.415 
 50
0.00000
0
POINT
  5
20
  8
POINT
10
997.0830        
20
988.3890        
30
99.4150         
0
TEXT
 8
ANNO_DESC
 10
998.083000      
 20
983.889000      
 30
99.415000       
 40
1.00000 
 1
K 
 50
0.00000
 0
POINT
  5
20
  8
POINT
10
982.3800        
20
1026.2380       
30
99.4980         
0
TEXT
 8
ANNO_PNTS
 10
983.380000      
 20
1029.738000     
 30
99.498000       
 40
1.00000 
 1
5 
50
0.00000
0
POINT
  5
20
  8
POINT
10
982.3800        
20
1026.2380       
30
99.4980         
0
TEXT
 8
ANNO_NRTH
 10
983.380000      
 20
1027.738000     
 30
99.498000       
 40
1.00000 
 1
1026.238 
 50
0.00000
0
POINT
  5
20
  8
POINT
10
982.3800        
20
1026.2380       
30
99.4980         
0
TEXT
 8
ANNO_EAST
 10
983.380000      
 20
1025.738000     
 30
99.498000       
 40
1.00000 
 1
982.380 
 50
0.00000
0
POINT
  5
20
  8
POINT
10
982.3800        
20
1026.2380       
30
99.4980         
0
TEXT
 8
ANNO_ELEV
 10
983.380000      
 20
1023.738000     
 30
99.498000       
 40
1.00000 
 1
99.498 
 50
0.00000
0
POINT
  5
20
  8
POINT
10
982.3800        
20
1026.2380       
30
99.4980         
0
TEXT
 8
ANNO_DESC
 10
983.380000      
 20
1021.738000     
 30
99.498000       
 40
1.00000 
 1
P 
 50
0.00000
 0
POINT
  5
20
  8
POINT
10
977.6630        
20
1065.9710       
30
100.2300        
0
TEXT
 8
ANNO_PNTS
 10
978.663000      
 20
1069.471000     
 30
100.230000      
 40
1.00000 
 1
6 
50
0.00000
0
POINT
  5
20
  8
POINT
10
977.6630        
20
1065.9710       
30
100.2300        
0
TEXT
 8
ANNO_NRTH
 10
978.663000      
 20
1067.471000     
 30
100.230000      
 40
1.00000 
 1
1065.971 
 50
0.00000
0
POINT
  5
20
  8
POINT
10
977.6630        
20
1065.9710       
30
100.2300        
0
TEXT
 8
ANNO_EAST
 10
978.663000      
 20
1065.471000     
 30
100.230000      
 40
1.00000 
 1
977.663 
 50
0.00000
0
POINT
  5
20
  8
POINT
10
977.6630        
20
1065.9710       
30
100.2300        
0
TEXT
 8
ANNO_ELEV
 10
978.663000      
 20
1063.471000     
 30
100.230000      
 40
1.00000 
 1
100.230 
 50
0.00000
0
POINT
  5
20
  8
POINT
10
977.6630        
20
1065.9710       
30
100.2300        
0
TEXT
 8
ANNO_DESC
 10
978.663000      
 20
1061.471000     
 30
100.230000      
 40
1.00000 
 1
K 
 50
0.00000
 0
POINT
  5
20
  8
POINT
10
963.3740        
20
1121.5250       
30
100.4500        
0
TEXT
 8
ANNO_PNTS
 10
964.374000      
 20
1125.025000     
 30
100.450000      
 40
1.00000 
 1
7 
50
0.00000
0
POINT
  5
20
  8
POINT
10
963.3740        
20
1121.5250       
30
100.4500        
0
TEXT
 8
ANNO_NRTH
 10
964.374000      
 20
1123.025000     
 30
100.450000      
 40
1.00000 
 1
1121.525 
 50
0.00000
0
POINT
  5
20
  8
POINT
10
963.3740        
20
1121.5250       
30
100.4500        
0
TEXT
 8
ANNO_EAST
 10
964.374000      
 20
1121.025000     
 30
100.450000      
 40
1.00000 
 1
963.374 
 50
0.00000
0
POINT
  5
20
  8
POINT
10
963.3740        
20
1121.5250       
30
100.4500        
0
TEXT
 8
ANNO_ELEV
 10
964.374000      
 20
1119.025000     
 30
100.450000      
 40
1.00000 
 1
100.450 
 50
0.00000
0
POINT
  5
20
  8
POINT
10
963.3740        
20
1121.5250       
30
100.4500        
0
TEXT
 8
ANNO_DESC
 10
964.374000      
 20
1117.025000     
 30
100.450000      
 40
1.00000 
 1
L 
 50
0.00000
 0
POINT
  5
20
  8
POINT
10
956.8130        
20
1120.0850       
30
100.2640        
0
TEXT
 8
ANNO_PNTS
 10
957.813000      
 20
1123.585000     
 30
100.264000      
 40
1.00000 
 1
8 
50
0.00000
0
POINT
  5
20
  8
POINT
10
956.8130        
20
1120.0850       
30
100.2640        
0
TEXT
 8
ANNO_NRTH
 10
957.813000      
 20
1121.585000     
 30
100.264000      
 40
1.00000 
 1
1120.085 
 50
0.00000
0
POINT
  5
20
  8
POINT
10
956.8130        
20
1120.0850       
30
100.2640        
0
TEXT
 8
ANNO_EAST
 10
957.813000      
 20
1119.585000     
 30
100.264000      
 40
1.00000 
 1
956.813 
 50
0.00000
0
POINT
  5
20
  8
POINT
10
956.8130        
20
1120.0850       
30
100.2640        
0
TEXT
 8
ANNO_ELEV
 10
957.813000      
 20
1117.585000     
 30
100.264000      
 40
1.00000 
 1
100.264 
 50
0.00000
0
POINT
  5
20
  8
POINT
10
956.8130        
20
1120.0850       
30
100.2640        
0
TEXT
 8
ANNO_DESC
 10
957.813000      
 20
1115.585000     
 30
100.264000      
 40
1.00000 
 1
BW 
 50
0.00000
 0
POINT
  5
20
  8
POINT
10
914.7450        
20
1112.1270       
30
100.6160        
0
TEXT
 8
ANNO_PNTS
 10
915.745000      
 20
1115.627000     
 30
100.616000      
 40
1.00000 
 1
9 
50
0.00000
0
POINT
  5
20
  8
POINT
10
914.7450        
20
1112.1270       
30
100.6160        
0
TEXT
 8
ANNO_NRTH
 10
915.745000      
 20
1113.627000     
 30
100.616000      
 40
1.00000 
 1
1112.127 
 50
0.00000
0
POINT
  5
20
  8
POINT
10
914.7450        
20
1112.1270       
30
100.6160        
0
TEXT
 8
ANNO_EAST
 10
915.745000      
 20
1111.627000     
 30
100.616000      
 40
1.00000 
 1
914.745 
 50
0.00000
0
POINT
  5
20
  8
POINT
10
914.7450        
20
1112.1270       
30
100.6160        
0
TEXT
 8
ANNO_ELEV
 10
915.745000      
 20
1109.627000     
 30
100.616000      
 40
1.00000 
 1
100.616 
 50
0.00000
0
POINT
  5
20
  8
POINT
10
914.7450        
20
1112.1270       
30
100.6160        
0
TEXT
 8
ANNO_DESC
 10
915.745000      
 20
1107.627000     
 30
100.616000      
 40
1.00000 
 1
BW 
 50
0.00000
 0
ENDSEC
 0
EOF
